<svg id="Capa_1" data-name="Capa 1" xmlns="http://www.w3.org/2000/svg" viewBox="0 0 1400 642.0323"><defs><style>.cls-1{fill:#f3d800;}.cls-2{fill:#fff;}.cls-23,.cls-3,.cls-4{fill:#1d1d1b;}.cls-4{font-size:28.9254px;}.cls-23,.cls-4{font-family:FranklinGothic-Heavy, Franklin Gothic Heavy;font-weight:800;}.cls-5{letter-spacing:0.0078em;}.cls-6{letter-spacing:0em;}.cls-7{letter-spacing:-0.0058em;}.cls-8{letter-spacing:-0.0078em;}.cls-9{fill:#d9d7ed;}.cls-10{fill:#eb593a;}.cls-11{fill:#f28e2e;}.cls-12{fill:#fbbb23;}.cls-13{fill:#ffe065;}.cls-14{fill:#4a4a46;}.cls-15{fill:#1c1d1c;}.cls-16{fill:#f6d845;}.cls-17{fill:#f5c833;}.cls-18{fill:#e2dfdd;}.cls-19{fill:#304261;}.cls-20{fill:#70bcea;}.cls-21{fill:#aedef9;}.cls-22{fill:#b6b2b7;}.cls-23{font-size:15.1373px;}.cls-24{fill:#1d1e1b;}.cls-25{fill:#010101;}</style></defs><title>Mesa de trabajo 4Jumbo</title><rect class="cls-1" width="1399.9973" height="642.032"/><path class="cls-2" d="M438.0539,204.27v73.0813H415.6208V248.9213H398.488v28.4295H376.0551V204.27H398.488V231.146h17.1328V204.27Z"/><path class="cls-2" d="M505.7276,259.8971v17.4537H450.7427V204.27h54.9849v16.8649h-32.98v10.6009H499.41v16.2221H472.7473v11.94Z"/><path class="cls-2" d="M577.0956,277.3508h-18.257l-20.0153-32.29a123.1258,123.1258,0,0,1-7.7716-15.0925,50.8674,50.8674,0,0,1,1.7668,11.9933v35.39H514.6152V204.27h21.2016l17.0272,26.7679a103.24,103.24,0,0,1,7.7079,14.0292A106.312,106.312,0,0,1,558.8386,225.9V204.27h18.257Z"/><path class="cls-2" d="M654.8885,277.3508H630.02L619.3451,249.403h-7.074v27.9478H589.8382V204.27h38.1735q12.6348,0,19.6224,5.9161a19.4463,19.4463,0,0,1,6.9868,15.6066,23.4666,23.4666,0,0,1-2.57,11.1631q-2.57,4.8465-10.3868,8.54ZM612.2711,233.77h9.5837a11.79,11.79,0,0,0,6.8-1.7668,5.8989,5.8989,0,0,0,2.57-5.1933q0-7.0132-8.62-7.0138H612.2711Z"/><path class="cls-2" d="M723.9683,204.27l-22.875,42.1357v30.9456h-21.791V246.4052L654.7146,204.27h24.5475l12.8095,24.09,12.28-24.09Z"/><path class="cls-3" d="M818.8533,204.2733,799.47,277.3544H780.6234L770.4,237.0392l-9.6547,40.3152H741.0967l-19.4176-73.0811h21.1087l10.2229,42.0624,9.9728-42.0624h17.6116l10.8492,42.1448,10.2389-42.1448Z"/><path class="cls-3" d="M862.738,277.3544l-4.13-14.4018H839.03l-4.3878,14.4018H816.4308l22.561-73.0811H862.71l22.9208,73.0811Zm-19.8941-30.3568h11.824l-5.9127-21.2Z"/><path class="cls-3" d="M1022.9994,259.9007v17.4537H968.0143V204.2733h54.9851v16.8649H990.0189v10.6007h26.6627v16.2226H990.0189v11.9392Z"/><path class="cls-3" d="M944.1893,245.4984q7.8162-3.6939,10.3865-8.54a23.4651,23.4651,0,0,0,2.57-11.1629,19.4475,19.4475,0,0,0-6.9868-15.6066q-6.9872-5.9151-19.6224-5.9161H892.363v73.0811h22.4329V249.4071H921.87l10.6742,27.9473h24.8692Zm-6.127-18.7119a7.6094,7.6094,0,0,1-7.6094,7.6093h-15.434c-1.8505,2.7633-4.9982,5.5945-9.9432,8.3893a23.4933,23.4933,0,0,0,5.0222-9.3016,7.6072,7.6072,0,0,1-3.9949-6.697h0a7.5994,7.5994,0,0,1,3.78-6.5682,32.2534,32.2534,0,0,0-4.8074-9.43,34.7757,34.7757,0,0,1,9.0834,8.3893h16.2938a7.6094,7.6094,0,0,1,7.6094,7.6094Z"/><path class="cls-3" d="M727.271,225.3193c-178.8336,6.1512-356.1515,21.675-351.176,20.85v19.38c87.2249-15.7394,235.46-25.565,353.7075-30.702l-2.5315-9.5279Z"/><path class="cls-3" d="M849.7282,222.8682c-39.4393.1023-80.989,1.0247-122.4572,2.4511l2.5315,9.5279c83.2876-3.6182,152.5526-4.9328,177.1047-4.6558l-.8008-3.5859.8615-3.3386Z"/><rect class="cls-3" x="467.1712" y="159.9947" width="464.6498" height="26.3226"/><path class="cls-3" d="M573.7616,139.1717v13.5088h-4.1465v-5.2549h-3.167v5.2549h-4.1465V139.1717h4.1465V144.14h3.167v-4.9678Z"/><path class="cls-3" d="M580.2538,139.1717v13.5088h-4.1465V139.1717Z"/><path class="cls-3" d="M594.2772,145.11v7.57h-2.0288a8.0948,8.0948,0,0,0-.5444-1.4151,4.4163,4.4163,0,0,1-3.7212,1.6231,5.58,5.58,0,0,1-4.2949-1.8262,7.0106,7.0106,0,0,1-1.6822-4.9433,7.9657,7.9657,0,0,1,1.628-5.0918,5.7961,5.7961,0,0,1,4.8442-2.0635,5.8813,5.8813,0,0,1,3.8892,1.2275,5.7784,5.7784,0,0,1,1.91,3.4834l-4.018.3955q-.2967-2.1078-1.8506-2.1074-2.0391,0-2.0386,3.8789a5.0266,5.0266,0,0,0,.6528,3.0928,2.03,2.03,0,0,0,1.5835.7471,1.8985,1.8985,0,0,0,1.2818-.4551,1.5855,1.5855,0,0,0,.5395-1.2471h-2.2368V145.11Z"/><path class="cls-3" d="M607.9242,139.1717v13.5088h-4.1465v-5.2549h-3.167v5.2549h-4.1465V139.1717h4.1465V144.14h3.167v-4.9678Z"/><path class="cls-3" d="M625.5,149.4539v3.2266H615.3368V139.1717H625.5v3.1172h-6.0962v1.96h4.9282v2.9981h-4.9282v2.207Z"/><path class="cls-3" d="M634.5917,152.6805l-.7637-2.6621H630.21l-.8115,2.6621h-3.3662l4.1709-13.5088h4.3838l4.2363,13.5088Zm-3.6768-5.6113h2.1856l-1.0928-3.919Z"/><path class="cls-3" d="M652.0917,152.6805H647.495l-1.9727-5.166h-1.3076v5.166h-4.1465V139.1717h7.0557a5.45,5.45,0,0,1,3.627,1.0937,3.5943,3.5943,0,0,1,1.292,2.8848,4.3308,4.3308,0,0,1-.4756,2.0635,3.9953,3.9953,0,0,1-1.92,1.5781Zm-7.877-8.0557h1.7715a2.1871,2.1871,0,0,0,1.2568-.3262,1.0908,1.0908,0,0,0,.4747-.96q0-1.2964-1.5928-1.2969h-1.91Z"/><path class="cls-3" d="M665.6014,152.6805h-3.375l-3.7-5.9688a22.8944,22.8944,0,0,1-1.4365-2.79,9.4078,9.4078,0,0,1,.3272,2.2168v6.542h-3.3653V139.1717h3.919l3.1474,4.9482a19.1457,19.1457,0,0,1,1.4249,2.5928,19.6609,19.6609,0,0,1-.3165-3.543v-3.998h3.375Z"/><path class="cls-3" d="M678.121,149.4539v3.2266H667.9569V139.1717H678.121v3.1172h-6.0967v1.96h4.9287v2.9981h-4.9287v2.207Z"/><path class="cls-3" d="M691.787,152.6805h-4.5977l-1.9726-5.166h-1.3076v5.166h-4.1465V139.1717h7.0556a5.4547,5.4547,0,0,1,3.628,1.0937,3.5965,3.5965,0,0,1,1.291,2.8848,4.3409,4.3409,0,0,1-.4746,2.0635,4.0052,4.0052,0,0,1-1.92,1.5781Zm-7.8779-8.0557h1.7714a2.1853,2.1853,0,0,0,1.2569-.3262,1.091,1.091,0,0,0,.4746-.96q0-1.2964-1.5928-1.2969h-1.91Z"/><path class="cls-3" d="M692.3514,148.7713l3.85-.6924a2.288,2.288,0,0,0,2.4941,1.6328q1.563,0,1.5635-.831a.7717.7717,0,0,0-.3614-.6787,3.8906,3.8906,0,0,0-1.291-.43q-3.5536-.6812-4.5625-1.7793a3.6992,3.6992,0,0,1-1.01-2.584,4.044,4.044,0,0,1,1.45-3.1777,6.15,6.15,0,0,1,4.1709-1.2676q4.1278,0,5.4531,3.3154l-3.4336,1.0391a2.1019,2.1019,0,0,0-2.168-1.3555q-1.355,0-1.3555.8408a.6664.6664,0,0,0,.3067.584,3.7551,3.7551,0,0,0,1.1875.3955,25.1174,25.1174,0,0,1,3.4453.9073,3.707,3.707,0,0,1,1.7012,1.35,3.7765,3.7765,0,0,1,.6826,2.2529,3.9912,3.9912,0,0,1-1.6621,3.3232,6.9934,6.9934,0,0,1-4.3643,1.2725Q693.5088,152.8885,692.3514,148.7713Z"/><path class="cls-3" d="M722.6737,152.6805H719.3l-3.7-5.9688a22.7535,22.7535,0,0,1-1.4365-2.79,9.4042,9.4042,0,0,1,.3261,2.2168v6.542h-3.3642V139.1717h3.9189l3.1475,4.9482a19.1437,19.1437,0,0,1,1.4248,2.5928,19.67,19.67,0,0,1-.3164-3.543v-3.998h3.374Z"/><path class="cls-3" d="M730.868,152.8885a6.1194,6.1194,0,0,1-4.6464-1.8906,7.0369,7.0369,0,0,1-1.7959-5.0567,7.3484,7.3484,0,0,1,1.7168-5.0029,5.9816,5.9816,0,0,1,4.7656-1.9746,6.0691,6.0691,0,0,1,4.5967,1.8613,6.8959,6.8959,0,0,1,1.7763,4.9678,7.3041,7.3041,0,0,1-1.791,5.1562A6.007,6.007,0,0,1,730.868,152.8885Zm-.02-3.0684a1.5667,1.5667,0,0,0,1.5088-.915,8.3284,8.3284,0,0,0,.46-3.35q0-3.5244-1.89-3.5235-2.0391,0-2.039,4.0176Q728.8886,149.82,730.8485,149.82Z"/><path class="cls-3" d="M744.5848,142.408v10.2725h-3.9287V142.408h-2.8007v-3.2363h9.53v3.2363Z"/><path class="cls-3" d="M765.6542,152.6805h-4.5977l-1.9726-5.166h-1.3077v5.166H753.63V139.1717h7.0556a5.4549,5.4549,0,0,1,3.628,1.0937,3.5965,3.5965,0,0,1,1.291,2.8848,4.3409,4.3409,0,0,1-.4746,2.0635,4.0051,4.0051,0,0,1-1.92,1.5781Zm-7.878-8.0557h1.7715a2.1853,2.1853,0,0,0,1.2569-.3262,1.091,1.091,0,0,0,.4746-.96q0-1.2964-1.5928-1.2969h-1.91Z"/><path class="cls-3" d="M771.76,139.1717v13.5088h-4.1464V139.1717Z"/><path class="cls-3" d="M781.5477,147.5242l3.79.2276a5.5348,5.5348,0,0,1-1.836,3.81,6.3,6.3,0,0,1-8.2978-.4951,7.0951,7.0951,0,0,1-1.6924-5.0273,7.8147,7.8147,0,0,1,1.6025-5.126,6.2692,6.2692,0,0,1,8.5957-.4658,6.1285,6.1285,0,0,1,1.628,3.9394l-3.87.208a2.9821,2.9821,0,0,0-.52-1.96,1.5664,1.5664,0,0,0-1.2217-.6036q-1.96,0-1.96,3.9385a6.0673,6.0673,0,0,0,.51,2.999,1.6105,1.6105,0,0,0,1.4307.7911Q781.349,149.7606,781.5477,147.5242Z"/><path class="cls-3" d="M798.3124,139.1717v13.5088h-4.1465v-5.2549h-3.167v5.2549h-4.1465V139.1717h4.1465V144.14h3.167v-4.9678Z"/><text class="cls-4" transform="translate(437.4516 362.9911)">THE BE<tspan class="cls-5" x="92.8213" y="0">S</tspan><tspan class="cls-6" x="110.6167" y="0">T E-MARKET </tspan><tspan class="cls-7" x="275.624" y="0">F</tspan><tspan x="291.2734" y="0">OR ELECT</tspan><tspan class="cls-8" x="419.5029" y="0">R</tspan><tspan x="439.2334" y="0">ONICS</tspan></text><rect class="cls-3" x="467.1712" y="369.5965" width="464.6498" height="4.4516"/><path class="cls-2" d="M91.2778,588.6317c-.49,0-.974.0245-1.4546.0611L159.141,482.387,44.0878,557.4087a13.4025,13.4025,0,0,0-18.994-2.9734c-11.0522-9.4038-25.5977-5.8194-25.5977-5.8194V642.032h93.416a33.6144,33.6144,0,0,0-.4943-15.5228,18.9559,18.9559,0,0,0-1.14-37.8775Z"/><circle class="cls-2" cx="25.2715" cy="543.2312" r="2.5016"/><circle class="cls-2" cx="105.7215" cy="583.9993" r="4.1674"/><path class="cls-9" d="M33.1367,551.7465a13.3693,13.3693,0,0,0-8.0429,2.6888c-11.0522-9.4038-25.5977-5.8194-25.5977-5.8194V642.032L159.141,482.387,44.0878,557.4087A13.4194,13.4194,0,0,0,33.1367,551.7465Z"/><path class="cls-10" d="M186.5552,498.49c-12.02,12.02-67.1974,23.6686-67.1974,23.6686s11.6485-55.1773,23.6686-67.1974,37.1764-17.6879,49.1966-5.6678S198.5754,486.47,186.5552,498.49Z"/><path class="cls-11" d="M185.2684,489.7933c-9.2633,9.2632-51.7855,18.24-51.7855,18.24s8.9769-42.5221,18.24-51.7854,28.65-13.6311,37.9131-4.3678S194.5317,480.53,185.2684,489.7933Z"/><path class="cls-12" d="M185.968,481.6822c-7.2167,7.2167-40.3441,14.21-40.3441,14.21s6.9935-33.1274,14.21-40.3441,22.32-10.62,29.5367-3.4028S193.1847,474.4656,185.968,481.6822Z"/><path class="cls-13" d="M185.2251,473.3669c-4.7153,4.7153-26.36,9.2847-26.36,9.2847s4.57-21.645,9.2848-26.36,14.5835-6.9386,19.2988-2.2234S189.94,468.6516,185.2251,473.3669Z"/><path class="cls-14" d="M208.7275,370.9026c-70.57,0-64.8225,22.7-82.8707,82.8706l38.8993-14.8925Z"/><path class="cls-14" d="M270.6138,432.789c0,70.57-22.7,64.8224-82.8706,82.8706L202.6356,476.76Z"/><path class="cls-15" d="M187.7432,515.66c18.8485-5.6536,34.0191-8.9726,45.968-13.0336-9.1933-7.3741-17.4855-22.7025,7.5526-50.8521L202.6356,476.76Z"/><path class="cls-15" d="M125.8568,453.7731l38.8993-14.8924,43.2788-66.9076c-28.1976,34.7283-50.9294,63.97-72.5308,46.9314C132.7317,428.77,129.8878,440.3342,125.8568,453.7731Z"/><path class="cls-16" d="M313.98,395.8775c35.58-38.1013,32.4063-100.7244,32.4063-100.7244s-62.6232-3.1736-100.7245,32.4061-80.9061,111.3215-80.9061,111.3215l37.9028,37.9029S278.4007,433.9789,313.98,395.8775Z"/><path class="cls-17" d="M310.01,298.07c-20.3646,3.68-45.3905,11.7869-64.3477,29.4895-38.1015,35.58-80.9061,111.3215-80.9061,111.3215l37.9028,37.9029s4.382-2.4772,11.5211-6.7614C169.5824,439.7076,186.4226,376.3348,310.01,298.07Z"/><path class="cls-14" d="M339.2522,349.4047a181.1194,181.1194,0,0,0,7.1345-54.2516,181.118,181.118,0,0,0-54.2517,7.1344Z"/><path class="cls-15" d="M292.135,302.2875l47.1172,47.1172c.2216-.7488.4328-1.4945.6411-2.239-19.96-16.5575-45.3316-45.1083,6.4934-52.0126A181.118,181.118,0,0,0,292.135,302.2875Z"/><circle class="cls-18" cx="277.2426" cy="362.1568" r="28.3238" transform="translate(-174.881 302.1134) rotate(-45)"/><circle class="cls-15" cx="277.2426" cy="362.1568" r="26.3909"/><circle class="cls-14" cx="277.2426" cy="362.1568" r="24.7273" transform="translate(-174.881 302.1134) rotate(-45)"/><circle class="cls-19" cx="277.2426" cy="362.1568" r="20.9015" transform="translate(-174.881 302.1134) rotate(-45)"/><circle class="cls-20" cx="277.2426" cy="362.1568" r="19.5917" transform="translate(-174.881 302.1134) rotate(-45)"/><path class="cls-21" d="M257.6509,362.1568a19.54,19.54,0,0,0,7.833,15.6438l27.4027-27.4027a19.5405,19.5405,0,0,0-15.644-7.8328c-.2395,0-.472.0272-.7095.0358l-18.8464,18.8463C257.6782,361.6847,257.6509,361.9172,257.6509,362.1568Z"/><path class="cls-21" d="M295.3673,354.7289l-25.5524,25.5524a19.4546,19.4546,0,0,0,5.0039,1.3018l21.85-21.85A19.4645,19.4645,0,0,0,295.3673,354.7289Z"/><circle class="cls-22" cx="291.4915" cy="306.2638" r="1.123"/><path class="cls-22" d="M298.3281,313.1a1.123,1.123,0,1,1,0-1.5882A1.1232,1.1232,0,0,1,298.3281,313.1Z"/><circle class="cls-22" cx="303.5763" cy="318.3486" r="1.123"/><path class="cls-22" d="M310.4129,325.1852a1.123,1.123,0,1,1,0-1.5882A1.123,1.123,0,0,1,310.4129,325.1852Z"/><path class="cls-22" d="M316.4553,331.2276a1.123,1.123,0,1,1,0-1.5882A1.1229,1.1229,0,0,1,316.4553,331.2276Z"/><circle class="cls-22" cx="321.7037" cy="336.476" r="1.123"/><path class="cls-22" d="M328.54,343.3125a1.1231,1.1231,0,1,1,0-1.5882A1.1231,1.1231,0,0,1,328.54,343.3125Z"/><circle class="cls-22" cx="333.7886" cy="348.5608" r="1.123"/><path class="cls-22" d="M170.2824,439.7276a1.24,1.24,0,1,1,0-1.7537A1.24,1.24,0,0,1,170.2824,439.7276Z"/><path class="cls-22" d="M176.9545,446.4a1.24,1.24,0,1,1,0-1.7537A1.24,1.24,0,0,1,176.9545,446.4Z"/><path class="cls-22" d="M183.6266,453.0718a1.24,1.24,0,1,1,0-1.7537A1.24,1.24,0,0,1,183.6266,453.0718Z"/><path class="cls-22" d="M190.2987,459.7439a1.24,1.24,0,1,1,0-1.7537A1.24,1.24,0,0,1,190.2987,459.7439Z"/><path class="cls-22" d="M196.9708,466.4159a1.24,1.24,0,1,1,0-1.7536A1.24,1.24,0,0,1,196.9708,466.4159Z"/><path class="cls-22" d="M203.6429,473.088a1.24,1.24,0,1,1,0-1.7536A1.24,1.24,0,0,1,203.6429,473.088Z"/><path class="cls-14" d="M241.9036,399.636l-85.092,85.092a484.3283,484.3283,0,0,1,49.7726-58.3921C236.5535,396.3665,241.9036,399.636,241.9036,399.636Z"/><path class="cls-15" d="M241.9036,399.6361l-85.092,85.0919a484.31,484.31,0,0,0,58.3922-49.7724C245.1732,404.9861,241.9036,399.6361,241.9036,399.6361Z"/><path class="cls-2" d="M344.0747,298.7207s1.0821,16.1933-5.28,44.8339C338.7949,343.5546,340.2969,324.5485,344.0747,298.7207Z"/><path class="cls-2" d="M1308.2143,588.6317c.49,0,.974.0245,1.4546.0611L1240.3511,482.387l115.0532,75.0217a13.4025,13.4025,0,0,1,18.994-2.9734c11.0522-9.4038,25.5978-5.8194,25.5978-5.8194V642.032H1306.58a33.6144,33.6144,0,0,1,.4943-15.5228,18.9559,18.9559,0,0,1,1.14-37.8775Z"/><circle class="cls-2" cx="1374.2206" cy="543.2312" r="2.5016"/><circle class="cls-2" cx="1293.7706" cy="583.9993" r="4.1674"/><path class="cls-9" d="M1366.3554,551.7465a13.3693,13.3693,0,0,1,8.0429,2.6888c11.0522-9.4038,25.5978-5.8194,25.5978-5.8194V642.032l-159.645-159.645,115.0532,75.0217A13.4194,13.4194,0,0,1,1366.3554,551.7465Z"/><path class="cls-10" d="M1212.9369,498.49c12.02,12.02,67.1974,23.6686,67.1974,23.6686s-11.6485-55.1773-23.6686-67.1974-37.1764-17.6879-49.1966-5.6678S1200.9167,486.47,1212.9369,498.49Z"/><path class="cls-11" d="M1214.2237,489.7933c9.2633,9.2632,51.7855,18.24,51.7855,18.24s-8.9769-42.5221-18.24-51.7854-28.65-13.6311-37.9131-4.3678S1204.96,480.53,1214.2237,489.7933Z"/><path class="cls-12" d="M1213.5241,481.6822c7.2167,7.2167,40.3441,14.21,40.3441,14.21s-6.9935-33.1274-14.21-40.3441-22.32-10.62-29.5367-3.4028S1206.3075,474.4656,1213.5241,481.6822Z"/><path class="cls-13" d="M1214.267,473.3669c4.7153,4.7153,26.36,9.2847,26.36,9.2847s-4.57-21.645-9.2848-26.36-14.5835-6.9386-19.2988-2.2234S1209.5517,468.6516,1214.267,473.3669Z"/><path class="cls-14" d="M1190.7646,370.9026c70.57,0,64.8225,22.7,82.8707,82.8706l-38.8993-14.8925Z"/><path class="cls-14" d="M1128.8783,432.789c0,70.57,22.7,64.8224,82.8706,82.8706L1196.8565,476.76Z"/><path class="cls-15" d="M1211.7489,515.66c-18.8485-5.6536-34.0191-8.9726-45.968-13.0336,9.1933-7.3741,17.4855-22.7025-7.5526-50.8521l38.6282,24.9864Z"/><path class="cls-15" d="M1273.6353,453.7731l-38.8993-14.8924-43.2788-66.9076c28.1976,34.7283,50.9294,63.97,72.5308,46.9314C1266.76,428.77,1269.6043,440.3342,1273.6353,453.7731Z"/><path class="cls-16" d="M1085.5117,395.8775c-35.58-38.1013-32.4063-100.7244-32.4063-100.7244s62.6232-3.1736,100.7245,32.4061,80.9061,111.3215,80.9061,111.3215l-37.9028,37.9029S1121.0914,433.9789,1085.5117,395.8775Z"/><path class="cls-17" d="M1089.4822,298.07c20.3646,3.68,45.39,11.7869,64.3477,29.4895,38.1015,35.58,80.9061,111.3215,80.9061,111.3215l-37.9028,37.9029s-4.382-2.4772-11.5211-6.7614C1229.91,439.7076,1213.07,376.3348,1089.4822,298.07Z"/><path class="cls-14" d="M1060.24,349.4047a181.1194,181.1194,0,0,1-7.1345-54.2516,181.118,181.118,0,0,1,54.2517,7.1344Z"/><path class="cls-15" d="M1107.3571,302.2875,1060.24,349.4047c-.2216-.7488-.4328-1.4945-.6411-2.239,19.96-16.5575,45.3316-45.1083-6.4934-52.0126A181.118,181.118,0,0,1,1107.3571,302.2875Z"/><circle class="cls-18" cx="1122.2495" cy="362.1568" r="28.3238" transform="translate(72.6158 899.6235) rotate(-45)"/><circle class="cls-15" cx="1122.2495" cy="362.1568" r="26.3909"/><circle class="cls-14" cx="1122.2495" cy="362.1568" r="24.7274" transform="translate(72.6158 899.6235) rotate(-45)"/><circle class="cls-19" cx="1122.2495" cy="362.1568" r="20.9015" transform="translate(72.6158 899.6235) rotate(-45)"/><circle class="cls-20" cx="1122.2495" cy="362.1568" r="19.5918" transform="translate(72.6158 899.6235) rotate(-45)"/><path class="cls-21" d="M1141.8412,362.1568a19.54,19.54,0,0,1-7.833,15.6438l-27.4026-27.4027a19.54,19.54,0,0,1,15.6439-7.8328c.24,0,.472.0272.71.0358l18.8464,18.8463C1141.8139,361.6847,1141.8412,361.9172,1141.8412,362.1568Z"/><path class="cls-21" d="M1104.1248,354.7289l25.5524,25.5524a19.4546,19.4546,0,0,1-5.0039,1.3018l-21.85-21.85A19.4645,19.4645,0,0,1,1104.1248,354.7289Z"/><circle class="cls-22" cx="1108.0006" cy="306.2638" r="1.123"/><path class="cls-22" d="M1101.164,313.1a1.1231,1.1231,0,1,0,0-1.5882A1.1233,1.1233,0,0,0,1101.164,313.1Z"/><circle class="cls-22" cx="1095.9158" cy="318.3486" r="1.123"/><path class="cls-22" d="M1089.0792,325.1852a1.123,1.123,0,1,0,0-1.5882A1.123,1.123,0,0,0,1089.0792,325.1852Z"/><path class="cls-22" d="M1083.0368,331.2276a1.123,1.123,0,1,0,0-1.5882A1.1229,1.1229,0,0,0,1083.0368,331.2276Z"/><circle class="cls-22" cx="1077.7884" cy="336.476" r="1.123"/><path class="cls-22" d="M1070.9518,343.3125a1.1231,1.1231,0,1,0,0-1.5882A1.1231,1.1231,0,0,0,1070.9518,343.3125Z"/><circle class="cls-22" cx="1065.7035" cy="348.5608" r="1.123"/><path class="cls-22" d="M1229.21,439.7276a1.24,1.24,0,1,0,0-1.7537A1.24,1.24,0,0,0,1229.21,439.7276Z"/><path class="cls-22" d="M1222.5376,446.4a1.24,1.24,0,1,0,0-1.7537A1.24,1.24,0,0,0,1222.5376,446.4Z"/><path class="cls-22" d="M1215.8655,453.0718a1.24,1.24,0,1,0,0-1.7537A1.24,1.24,0,0,0,1215.8655,453.0718Z"/><path class="cls-22" d="M1209.1934,459.7439a1.24,1.24,0,1,0,0-1.7537A1.24,1.24,0,0,0,1209.1934,459.7439Z"/><path class="cls-22" d="M1202.5213,466.4159a1.24,1.24,0,1,0,0-1.7536A1.24,1.24,0,0,0,1202.5213,466.4159Z"/><path class="cls-22" d="M1195.8492,473.088a1.24,1.24,0,1,0,0-1.7536A1.24,1.24,0,0,0,1195.8492,473.088Z"/><path class="cls-14" d="M1157.5885,399.636l85.092,85.092a484.3171,484.3171,0,0,0-49.7726-58.3921C1162.9386,396.3665,1157.5885,399.636,1157.5885,399.636Z"/><path class="cls-15" d="M1157.5885,399.6361l85.092,85.0919a484.31,484.31,0,0,1-58.3922-49.7724C1154.3189,404.9861,1157.5885,399.6361,1157.5885,399.6361Z"/><path class="cls-2" d="M1055.4174,298.7207s-1.0821,16.1933,5.28,44.8339C1060.6972,343.5546,1059.1952,324.5485,1055.4174,298.7207Z"/><rect class="cls-3" x="26.9542" y="24.4997" width="30.9677" height="593.0323"/><path class="cls-2" d="M816.9393,139.1717l-4.2275,7.7891v5.72h-4.0283v-5.72l-4.5449-7.7891h4.5371l2.3681,4.4531,2.27-4.4531Z"/><path class="cls-2" d="M827.8739,149.4539v3.2266H817.71V139.1717h10.1641v3.1172h-6.0967v1.96h4.9287v2.9981h-4.9287v2.207Z"/><path class="cls-2" d="M835.0673,142.408v10.2725h-3.9287V142.408h-2.8008v-3.2363h9.53v3.2363Z"/><rect class="cls-3" x="1338.438" y="24.4997" width="30.9677" height="593.0323"/><path class="cls-3" d="M689.5987,625.3764h-6.4114l-.3481.6622,7.12,5.19c1.3488-.781,2.8164-1.5725,4.4127-2.3534"/><path class="cls-3" d="M695.3434,635.1537l6.2583,4.5636h6.49l.2687-.6044-9.3449-6.84q-1.8616,1.3662-3.6717,2.8807"/><path class="cls-3" d="M688.6445,639.7068h-5.8008l-.49-.7677c3.9442-3.8082,21.5848-20.1328,59.93-21.8818,0,0-32.1852,1.0857-53.6391,22.6495"/><text class="cls-23" transform="translate(588.203 640.1319)">SPONSORS:</text><g id="T"><path id="path35" class="cls-24" d="M759.6446,639.7173l3.321-18.6774c3.1655,0,4.1639.3472,4.3081,1.764a7.4662,7.4662,0,0,0,3.1945-2.4A23.4677,23.4677,0,0,0,762.09,618.38l-2.45,2.9845.0055,0-2.45-2.9846a23.4647,23.4647,0,0,0-8.3783,2.0241,7.4613,7.4613,0,0,0,3.1945,2.4c.145-1.4169,1.1422-1.764,4.2865-1.7663l3.3477,18.68"/><path id="path37" class="cls-24" d="M759.6433,617.518a27.36,27.36,0,0,1,11.2041,2.248,9.0946,9.0946,0,0,0,.6651-1.3732,31.6141,31.6141,0,0,0-23.7385,0,11.4965,11.4965,0,0,0,.6647,1.3732,27.358,27.358,0,0,1,11.2041-2.248h0"/></g><path id="path5412" class="cls-25" d="M777.003,631.3805H796.48l-.1489-1.059h-16.69l11.8713-11.4426c1.6276-1.6277,4.502-.5737,4.977,2.0217.8532,5.3633,1.53,11.0716,2.2542,16.5622a2.2622,2.2622,0,0,0,3.9231,1.2452l8.29-8.3814H800.1314l.1445,1.04h8.1978l-6.4652,6.5165c-.9.9-1.9717.868-2.3774-.6461L797.3753,620.45h0A3.9659,3.9659,0,0,0,790.8,618.1Z"/></svg>