<svg id="Capa_1" data-name="Capa 1" xmlns="http://www.w3.org/2000/svg" viewBox="0 0 1793.5631 202.2505"><defs><style>.cls-1{fill:#fff;}.cls-2{fill:#ffff01;}</style></defs><title>Mesa de trabajo 1HENRY</title><path class="cls-1" d="M171.5713,0V202.2406h-62.08V123.5667H62.0792v78.6739H0V0H62.0792V74.3764h47.4121V0Z"/><path class="cls-1" d="M358.8471,153.94v48.3H206.6855V0H358.8471V46.6708H267.58V76.0071h73.7846v44.892H267.58V153.94Z"/><path class="cls-1" d="M556.3465,202.2406H505.8232l-55.389-89.3583a340.7113,340.7113,0,0,1-21.5068-41.7659q4.89,19.56,4.8893,33.1895v97.9347H383.4422V0H442.114l47.12,74.0759q14.0772,22.0786,21.33,38.8235a294.2011,294.2011,0,0,1-4.7412-53.0419V0h50.5233Z"/><path class="cls-1" d="M771.6256,202.2406H702.805L673.265,124.9H653.6888v77.3409H591.61V0H697.2485Q732.2132,0,751.55,16.3718q19.3344,16.3725,19.3348,43.1887,0,17.4834-7.1117,30.8922-7.1116,13.4117-28.7438,23.6317ZM653.6888,81.637H680.21q11.7027,0,18.8165-4.8893,7.1116-4.89,7.1117-14.3716,0-19.4082-23.8538-19.41H653.6888Z"/><path class="cls-1" d="M962.7923,0,899.49,116.6038v85.6368H839.1865V116.6038L771.1442,0h67.9312l35.4482,66.6658L908.5078,0Z"/><path class="cls-2" d="M1225.371.0107l-53.6408,202.24h-52.154L1091.2846,90.6849l-26.7179,111.5656h-54.3743L956.4575.0107h58.4148l28.29,116.4008L1070.7605.0107h48.7374l30.0234,116.6287L1177.8556.0107Z"/><path class="cls-2" d="M1346.8149,202.2505l-11.4291-39.8546H1281.208l-12.1427,39.8546h-50.3979L1281.1012.0107h65.6354l63.4293,202.24Zm-55.0536-84.0075h32.7208L1308.12,59.5762Z"/><path class="cls-2" d="M1608.814,202.2505h-68.8214l-29.5392-77.3394h-19.5769v77.3394h-62.0793V.0107h105.64q34.9645,0,54.3016,16.3718,19.3335,16.3725,19.3349,43.1887,0,17.4845-7.1124,30.8915-7.1118,13.4117-28.7431,23.6316ZM1490.8765,81.6469h26.5213q11.7025,0,18.8165-4.8892,7.1116-4.89,7.1124-14.3709,0-19.4082-23.8539-19.41h-28.5963Z"/><path class="cls-2" d="M1790.3119,153.95v48.3H1638.15V.0107h152.1624V46.6815h-91.2681V76.0171h73.7847v44.8934h-73.7847v33.04Z"/><path class="cls-2" d="M0,170.5854V116.9548c.014,1.5759,744.6606-63.982,1324.4821-65.4857l153.1654,1.6936-.2822,19.1941C1320.1821,69.1469,434.8835,94.64,0,170.5854Z"/><path class="cls-1" d="M1531.1079,41.2545h-45.09c-9.9529-14.0066-25.1369-23.2161-25.1369-23.2161a89.2572,89.2572,0,0,1,13.3037,26.0975,21.0294,21.0294,0,0,0-10.4609,18.1762h0a21.0515,21.0515,0,0,0,11.0552,18.5328,65.0145,65.0145,0,0,1-13.898,25.7408c13.6845-7.7343,22.3951-15.5691,27.5163-23.216h42.7109a21.0578,21.0578,0,0,0,21.0578-21.0576h0A21.0578,21.0578,0,0,0,1531.1079,41.2545Z"/></svg>