<svg id="Capa_1" data-name="Capa 1" xmlns="http://www.w3.org/2000/svg" viewBox="0 0 474.1772 229.1613"><defs><style>.cls-1{fill:#fff;}.cls-2{fill:#ffff01;}</style></defs><title>Mesa de trabajo 2HENRY</title><path class="cls-1" d="M154.0486,42.5333V181.2086H111.4807V127.2623H78.97v53.9463H36.4031V42.5333H78.97v51h32.51V42.5333Z"/><path class="cls-2" d="M364.2021,42.5336,327.4208,181.2084H291.6591l-19.3994-76.5-18.32,76.5H216.6552L179.81,42.5336h40.0547l19.3984,79.8154,18.9238-79.8154h33.419l20.5869,79.9716L331.621,42.5336Z"/><path class="cls-2" d="M388.94,102.9389c-136.0369,0-226.8756,18.6809-352.537,49.7708V115.9355c.0052.5875,207.21-30.7742,352.537-24.6Z"/><path class="cls-1" d="M412.3565,83.3385H381.4383c-6.8247-9.6042-17.2362-15.9191-17.2362-15.9191a61.2044,61.2044,0,0,1,9.1222,17.8949,14.42,14.42,0,0,0-7.173,12.4633h0a14.4351,14.4351,0,0,0,7.5806,12.7079,44.5809,44.5809,0,0,1-9.53,17.65c9.3833-5.3034,15.3562-10.6757,18.8677-15.9191h29.2867a14.4392,14.4392,0,0,0,14.4392-14.4391h0A14.4392,14.4392,0,0,0,412.3565,83.3385Z"/></svg>